{"title":"Mile 22 2018 720p HDCAM x264 AAC [MW]","magnet":"magnet:?xt=urn:btih:5891c2ee73fd065048f5669ed07e83edb27b2c6e&dn=Mile+22+2018+720p+HDCAM+x264+AAC+%5BMW%5D&tr=udp%3A%2F%2Ftracker.leechers-paradise.org%3A6969&tr=udp%3A%2F%2Fzer0day.ch%3A1337&tr=udp%3A%2F%2Fopen.demonii.com%3A1337&tr=udp%3A%2F%2Ftracker.coppersurfer.tk%3A6969&tr=udp%3A%2F%2Fexodus.desync.com%3A6969","uploader":"MFreaky","categoryP":"video","categoryS":"movies","size":"1422190791","seeders":"17","leechers":"40","description":" <a href=\"https://pichub.site/image/SMnLu\" rel=\"nofollow\" target=\"_NEW\">https://pichub.site/image/SMnLu</a> <a href=\"\nhttps://pichub.site/image/SMZds\" rel=\"nofollow\" target=\"_NEW\">\nhttps://pichub.site/image/SMZds</a> <a href=\"\nhttps://pichub.site/image/SM1GB\" rel=\"nofollow\" target=\"_NEW\">\nhttps://pichub.site/image/SM1GB</a> <a href=\"\nhttps://pichub.site/image/SM9ZY\" rel=\"nofollow\" target=\"_NEW\">\nhttps://pichub.site/image/SM9ZY</a> <a href=\"\nhttps://pichub.site/image/SMTI6\" rel=\"nofollow\" target=\"_NEW\">\nhttps://pichub.site/image/SMTI6</a> <a href=\"\nhttps://pichub.site/image/SMFAt\" rel=\"nofollow\" target=\"_NEW\">\nhttps://pichub.site/image/SMFAt</a>\r\n\r\nIMDB:- <a href=\"\nhttps://www.imdb.com/title/tt4560436/\" rel=\"nofollow\" target=\"_NEW\">\nhttps://www.imdb.com/title/tt4560436/</a>\r\n\r\nVideo\r\nID : 1\r\nFormat : AVC\r\nFormat/Info : Advanced Video Codec\r\nFormat profile : High@L4.1\r\nFormat settings : CABAC / 4 Ref Frames\r\nFormat settings, CABAC : Yes\r\nFormat settings, RefFrames : 4 frames\r\nCodec ID : V_MPEG4/ISO/AVC\r\nDuration : 1 h 26 min\r\nBit rate : 2 000 kb/s\r\nWidth : 1 268 pixels\r\nHeight : 534 pixels\r\nDisplay aspect ratio : 2.40:1\r\nFrame rate mode : Constant\r\nFrame rate : 29.970 (30000/1001) FPS\r\nColor space : YUV\r\nChroma subsampling : 4:2:0\r\nBit depth : 8 bits\r\nScan type : Progressive\r\nBits/(Pixel*Frame) : 0.099\r\nStream size : 1.21 GiB (91%)\r\nWriting library : x264 core 155 r2901 7d0ff22\r\nDefault : Yes\r\nForced : No\r\n\r\nAudio\r\nID : 2\r\nFormat : AAC\r\nFormat/Info : Advanced Audio Codec\r\nFormat profile : LC\r\nCodec ID : A_AAC-2\r\nDuration : 1 h 26 min\r\nBit rate : 192 kb/s\r\nChannel(s) : 2 channels\r\nChannel positions : Front: L R\r\nSampling rate : 48.0 kHz\r\nFrame rate : 46.875 FPS (1024 SPF)\r\nCompression mode : Lossy\r\nStream size : 119 MiB (9%)\r\nDefault : Yes\r\nForced : No","last_updated":"2018-08-18T12:08:57.371Z","parsed":{"xt":"urn:btih:5891c2ee73fd065048f5669ed07e83edb27b2c6e","dn":"Mile 22 2018 720p HDCAM x264 AAC [MW]","tr":["udp://exodus.desync.com:6969","udp://open.demonii.com:1337","udp://tracker.coppersurfer.tk:6969","udp://tracker.leechers-paradise.org:6969","udp://zer0day.ch:1337"],"infoHash":"5891c2ee73fd065048f5669ed07e83edb27b2c6e","infoHashBuffer":{"type":"Buffer","data":[88,145,194,238,115,253,6,80,72,245,102,158,208,126,131,237,178,123,44,110]},"name":"Mile 22 2018 720p HDCAM x264 AAC [MW]","announce":["udp://exodus.desync.com:6969","udp://open.demonii.com:1337","udp://tracker.coppersurfer.tk:6969","udp://tracker.leechers-paradise.org:6969","udp://zer0day.ch:1337"],"urlList":[]}}